<svg xmlns="http://www.w3.org/2000/svg" width="16" height="16" viewBox="0 0 256 256"><path fill="currentColor" d="M225.28,165.06a4,4,0,0,1-5.49,1.37c-1.29-.78-43.35-25.86-91.79-2.43a4,4,0,1,1-3.58-7.16,107.64,107.64,0,0,1,31.09-9.54l-8.71-32.51a4,4,0,0,1,7.72-2.07l9.16,34.19a126.09,126.09,0,0,1,29.62,9.31l16.17-27.99a4,4,0,0,1,6.93,4l-16.4,28.39C212.46,150.84,221.21,157.59,225.28,165.06Zm-194.56,1.37a4,4,0,0,0,5.49-1.37c4.07-7.47,12.82-14.22,25.38-24.43L45.19,112.24a4,4,0,1,1,6.93-4l16.17,28a126.09,126.09,0,0,1,29.62-9.31l9.16-34.19a4,4,0,1,1,7.72,2.07l-8.71,32.51a107.64,107.64,0,0,1,31.09,9.54,4,4,0,0,1-3.58,7.16c-48.44-23.43-90.5,1.65-91.79,2.43A4,4,0,0,1,30.72,166.43Z"/></svg>
