<svg xmlns="http://www.w3.org/2000/svg" width="16" height="16" viewBox="0 0 256 256"><path fill="currentColor" d="M243.66,126.38c-.34-.76-8.52-18.89-26.83-37.2C199.87,72.22,170.7,52,128,52S56.13,72.22,39.17,89.18c-18.31,18.31-26.49,36.44-26.83,37.2a4.08,4.08,0,0,0,0,3.25c.34.77,8.52,18.89,26.83,37.2C56.13,183.78,85.3,204,128,204s71.87-20.22,88.83-37.17c18.31-18.31,26.49-36.43,26.83-37.2A4.08,4.08,0,0,0,243.66,126.38ZM128,196c-40.07,0-67-19.77-83.18-36C30.88,146.06,22.41,132.13,20.14,128c2.27-4.13,10.74-18.06,24.68-32C60.94,79.77,87.93,60,128,60s67.06,19.77,83.18,36C225.12,109.94,233.59,123.87,235.86,128,233.59,132.13,225.12,146.06,211.18,160,195.06,176.23,168.07,196,128,196Zm0-112a44,44,0,1,0,44,44A44.05,44.05,0,0,0,128,84Zm0,80a36,36,0,1,1,36-36A36,36,0,0,1,128,164Z"/></svg>
