<svg xmlns="http://www.w3.org/2000/svg" width="16" height="16" viewBox="0 0 256 256"><path fill="currentColor" d="M164,112a4,4,0,0,1-4,4H96a4,4,0,0,1,0-8h64A4,4,0,0,1,164,112Zm-4,28H96a4,4,0,0,0,0,8h64a4,4,0,0,0,0-8Zm64-88V204a4,4,0,0,1-4,4H140v20a4,4,0,0,1-6.83,2.83l-20-20a4,4,0,0,1,0-5.66l20-20A4,4,0,0,1,140,188v12h76V52H140V64a4,4,0,0,1-6.83,2.83l-20-20a4,4,0,0,1,0-5.66l20-20A4,4,0,0,1,140,24V44h80A4,4,0,0,1,224,52ZM132,197.17,118.83,184,132,170.83ZM132,53.17,118.83,40,132,26.83ZM36,204V52a4,4,0,0,1,8,0V204a4,4,0,0,1-8,0Zm40,0V52a4,4,0,0,1,8,0V204a4,4,0,0,1-8,0Z"/></svg>
