<svg xmlns="http://www.w3.org/2000/svg" width="16" height="16" viewBox="0 0 256 256"><path fill="currentColor" d="M128,60a68,68,0,1,0,68,68A68.07,68.07,0,0,0,128,60Zm0,128a60,60,0,1,1,60-60A60.07,60.07,0,0,1,128,188ZM32,128a4,4,0,0,1-4,4H12a4,4,0,0,1,0-8H28A4,4,0,0,1,32,128Zm196,0a4,4,0,0,1-4,4H208a4,4,0,0,1,0-8h16A4,4,0,0,1,228,128ZM55.2,55.2a4,4,0,0,1,0,5.66l-12,12a4,4,0,0,1-5.66-5.66l12-12A4,4,0,0,1,55.2,55.2Zm0,145.6-12,12a4,4,0,0,1-5.66-5.66l12-12a4,4,0,1,1,5.66,5.66ZM128,28a4,4,0,0,1,4,4V48a4,4,0,0,1-8,0V32A4,4,0,0,1,128,28Zm0,180a4,4,0,0,1,4,4v16a4,4,0,0,1-8,0V212A4,4,0,0,1,128,208Zm72-152.8a4,4,0,0,1,0-5.66l12-12a4,4,0,1,1,5.66,5.66l-12,12a4,4,0,0,1-5.66,0Zm0,145.6a4,4,0,0,1,0-5.66l12-12a4,4,0,0,1,5.66,5.66l-12,12a4,4,0,0,1-5.66,0Z"/></svg>
