<svg xmlns="http://www.w3.org/2000/svg" width="22" height="22" viewBox="0 0 122.5 122.5" fill="#ffffff"><path d="M8.7,61.3c0,20.9,12.2,39,29.8,47.6L13.1,42.7C10.3,48.5,8.7,54.7,8.7,61.3z M96.7,58.7c0-6.5-2.3-11-4.3-14.5c-2.7-4.3-5.2-8-5.2-12.3c0-4.8,3.7-9.3,8.8-9.3c0.2,0,0.4,0,0.7,0c-9.3-8.5-21.7-13.7-35.4-13.7c-18.3,0-34.5,9.4-43.9,23.7c1.2,0,2.4,0.1,3.4,0.1c5.5,0,14-0.7,14-0.7c2.8-0.2,3.2,4,0.3,4.3c0,0-2.9,0.3-6,0.5l19.1,56.9l11.5-34.5l-8.2-22.4c-2.8-0.2-5.5-0.5-5.5-0.5c-2.8-0.2-2.5-4.5,0.3-4.3c0,0,8.7,0.7,13.9,0.7c5.5,0,14-0.7,14-0.7c2.8-0.2,3.2,4,0.3,4.3c0,0-2.9,0.3-6,0.5l19,56.5l5.2-17.5C98.3,70,96.7,63.8,96.7,58.7z M61.3,64.5L45.6,110c4.7,1.4,9.7,2.2,14.9,2.2c6.2,0,12.1-1.1,17.6-3c-0.1-0.2-0.3-0.5-0.4-0.7L61.3,64.5z M107.1,38.9c0.2,1.7,0.4,3.5,0.4,5.5c0,5.4-1,11.5-4.1,19.1l-16.4,47.4c16-9.3,26.7-26.7,26.7-46.6C113.7,55.1,111.2,46.4,107.1,38.9z M61.3,0C27.4,0,0,27.4,0,61.3c0,33.8,27.4,61.3,61.3,61.3c33.8,0,61.3-27.4,61.3-61.3C122.5,27.4,95.1,0,61.3,0z M61.3,119.7c-32.2,0-58.4-26.2-58.4-58.4c0-32.2,26.2-58.4,58.4-58.4c32.2,0,58.4,26.2,58.4,58.4C119.7,93.5,93.5,119.7,61.3,119.7z"/></svg>
